<svg width="160" height="184" viewBox="0 0 160 184" fill="none" xmlns="http://www.w3.org/2000/svg">
<path d="M68.3641 87.6578V105.244C68.3572 106.039 68.5613 106.822 68.9573 107.521C69.3532 108.22 69.928 108.81 70.6277 109.238C71.3274 109.666 72.129 109.916 72.9575 109.966C73.7859 110.016 74.614 109.863 75.3639 109.522L92.7606 101.636C93.4928 101.301 94.1177 100.784 94.57 100.139C95.0222 99.4943 95.2852 98.7448 95.3315 97.9691C95.3778 97.1934 95.2057 96.42 94.8331 95.7298C94.4605 95.0396 93.9012 94.458 93.2135 94.0456L75.7963 83.6753C75.0556 83.2471 74.2097 83.0143 73.3447 83.0006C72.4796 82.987 71.6262 83.1929 70.8712 83.5975C70.1162 84.002 69.4865 84.5908 69.0461 85.304C68.6057 86.0172 68.3704 86.8293 68.3641 87.6578Z" fill="#415465"/>
<path d="M85.5789 34.2996L83.813 25.7389L84.8085 25.8765L86.1908 32.945L89.3493 26.4806L90.1017 26.5846L91.3882 33.6634L94.636 27.2349L95.5968 27.3677L91.5749 35.1284L90.7994 35.0212L89.4857 28.1391L86.3429 34.4052L85.5789 34.2996Z" fill="#415465"/>
<path d="M106.578 39.3005L113.603 33.6067L114.376 33.9943L114.016 43.0294L113.128 42.5843L113.24 40.2223L109.26 38.2269L107.425 39.7248L106.578 39.3005ZM109.961 37.6372L113.294 39.3078L113.497 34.7563L109.961 37.6372Z" fill="#415465"/>
<path d="M126.153 51.9148L131.134 46.5413L129.12 44.6745L129.7 44.0489L134.413 48.4179L133.833 49.0435L131.819 47.1768L126.839 52.5503L126.153 51.9148Z" fill="#415465"/>
<path d="M138.729 67.3728C137.514 65.3489 138.211 62.8998 140.225 61.6911L140.245 61.679C142.229 60.4883 144.762 60.9849 146.001 63.0488C146.764 64.3213 146.771 65.3533 146.53 66.4516L145.624 66.2594C145.831 65.3315 145.834 64.4296 145.263 63.4778C144.331 61.9249 142.371 61.5204 140.758 62.4886L140.738 62.5006C139.115 63.4748 138.546 65.4108 139.472 66.9538C140.049 67.9156 140.799 68.3243 141.843 68.6107L141.645 69.4384C140.464 69.1521 139.492 68.6452 138.729 67.3728Z" fill="#415465"/>
<path d="M145.828 82.5171L153.768 80.5492L153.99 81.4452L150.463 82.3195L151.598 86.9018L155.126 86.0275L155.348 86.9235L147.408 88.8914L147.186 87.9954L150.759 87.1098L149.623 82.5276L146.051 83.4131L145.828 82.5171Z" fill="#415465"/>
<path d="M146.713 119.723L155.582 118.468L155.315 119.461L147.754 120.439L153.799 125.092L153.541 126.051L146.5 120.513L146.713 119.723Z" fill="#415465"/>
<path d="M140.266 136.263L147.381 140.298L146.926 141.101L139.811 137.066L140.266 136.263Z" fill="#415465"/>
<path d="M132.243 148.009L138.121 153.697L136.147 155.737C134.359 157.585 131.856 157.634 130.201 156.033L130.185 156.017C128.53 154.416 128.481 151.897 130.268 150.049L132.243 148.009ZM135.534 155.144L136.866 153.767L132.214 149.265L130.881 150.642C129.443 152.129 129.533 154.053 130.834 155.312L130.851 155.329C132.153 156.588 134.095 156.63 135.534 155.144Z" fill="#415465"/>
<path d="M116.709 161.33L120.767 168.432L115.633 171.365L115.216 170.635L119.548 168.159L118.163 165.735L114.287 167.949L113.87 167.219L117.745 165.004L116.325 162.518L111.942 165.023L111.525 164.292L116.709 161.33Z" fill="#415465"/>
<path d="M96.2602 169.784C98.68 169.201 100.762 170.707 101.29 172.899L101.295 172.922C101.823 175.114 100.639 177.431 98.2188 178.014C95.799 178.597 93.7175 177.091 93.1893 174.899L93.1838 174.876C92.6557 172.683 93.8404 170.367 96.2602 169.784ZM96.4373 170.618C94.6196 171.056 93.6748 172.822 94.1099 174.629L94.1154 174.651C94.5505 176.458 96.2241 177.617 98.0417 177.179C99.8594 176.741 100.804 174.975 100.369 173.169L100.364 173.146C99.9285 171.34 98.2549 170.181 96.4373 170.618Z" fill="#415465"/>
<path d="M63.2832 169.896L63.6454 178.63L62.6851 178.333L62.4608 171.135L58.3012 177.005L57.5754 176.781L57.4474 169.587L53.2053 175.408L52.2785 175.122L57.4993 168.111L58.2474 168.342L58.434 175.346L62.5462 169.669L63.2832 169.896Z" fill="#415465"/>
<path d="M43.3653 161.574L35.5144 166.061L34.814 165.554L36.6264 156.695L37.4309 157.277L36.9391 159.59L40.5452 162.201L42.5986 161.019L43.3653 161.574ZM39.7583 162.67L36.7391 160.484L35.8042 164.943L39.7583 162.67Z" fill="#415465"/>
<path d="M26.0809 145.968L20.2989 150.468L21.9855 152.635L21.3123 153.159L17.3649 148.087L18.0381 147.563L19.7247 149.73L25.5068 145.23L26.0809 145.968Z" fill="#415465"/>
<path d="M16.1632 128.684C17.0357 130.878 15.9529 133.182 13.7704 134.05L13.7487 134.059C11.5989 134.914 9.17891 134.016 8.28914 131.779C7.7406 130.4 7.90094 129.38 8.31521 128.335L9.17821 128.671C8.825 129.553 8.67576 130.443 9.08609 131.474C9.75557 133.157 11.6247 133.873 13.3728 133.177L13.3945 133.169C15.1535 132.469 16.0271 130.65 15.3619 128.978C14.9473 127.935 14.2734 127.411 13.2891 126.96L13.6183 126.175C14.7371 126.648 15.6147 127.305 16.1632 128.684Z" fill="#415465"/>
<path d="M11.5985 112.593L3.44547 113.255L3.37079 112.335L6.99305 112.041L6.61112 107.336L2.98886 107.63L2.91418 106.709L11.0672 106.048L11.1419 106.968L7.47301 107.266L7.85493 111.971L11.5238 111.673L11.5985 112.593Z" fill="#415465"/>
<path d="M16.7261 75.7319L7.77052 75.5399L8.19448 74.603L15.8137 74.8573L10.5985 69.2907L11.008 68.3857L17.0634 74.9867L16.7261 75.7319Z" fill="#415465"/>
<path d="M25.7556 60.4489L19.3846 55.3186L19.9636 54.5996L26.3346 59.7299L25.7556 60.4489Z" fill="#415465"/>
<path d="M35.568 50.1505L30.6839 43.589L32.9617 41.8935C35.0239 40.3584 37.5023 40.7133 38.8768 42.5599L38.8907 42.5787C40.2653 44.4253 39.908 46.92 37.8458 48.455L35.568 50.1505ZM33.471 42.5777L31.9337 43.722L35.7992 48.915L37.3365 47.7708C38.9956 46.5358 39.2176 44.6225 38.1361 43.1696L38.1221 43.1508C37.0406 41.6979 35.1302 41.3427 33.471 42.5777Z" fill="#415465"/>
<path d="M53.0466 39.5084L50.187 31.8447L55.7267 29.7776L56.0209 30.5659L51.346 32.3103L52.3224 34.9269L56.5046 33.3663L56.7987 34.1546L52.6165 35.7151L53.6174 38.3974L58.347 36.6326L58.6411 37.4208L53.0466 39.5084Z" fill="#415465"/>
<path d="M74.5916 34.4629C72.1095 34.6479 70.2981 32.8261 70.1304 30.577L70.1287 30.5537C69.961 28.3047 71.5039 26.2093 73.986 26.0243C76.4681 25.8393 78.2796 27.6611 78.4472 29.9102L78.449 29.9335C78.6166 32.1825 77.0737 34.2779 74.5916 34.4629ZM74.5515 33.6105C76.416 33.4715 77.6333 31.8809 77.4952 30.028L77.4934 30.0047C77.3553 28.1519 75.8906 26.7377 74.0261 26.8767C72.1616 27.0157 70.9444 28.6063 71.0825 30.4592L71.0842 30.4825C71.2223 32.3353 72.687 33.7495 74.5515 33.6105Z" fill="#415465"/>
<path d="M107.155 39.6699L108.206 30.9925L109.106 31.4398L108.166 38.5806L113.218 33.4579L113.898 33.7959L112.865 40.916L117.99 35.8558L118.858 36.2876L112.575 42.3643L111.874 42.0158L112.82 35.0736L107.846 40.0132L107.155 39.6699Z" fill="#415465"/>
<path d="M125.47 51.0957L133.942 47.9341L134.551 48.5476L131.334 56.9982L130.634 56.2936L131.492 54.0902L128.355 50.9317L126.138 51.7672L125.47 51.0957ZM129.207 50.5957L131.834 53.2402L133.476 48.9903L129.207 50.5957Z" fill="#415465"/>
<path d="M140.011 69.2847L146.443 65.7762L145.128 63.3654L145.877 62.9569L148.955 68.5991L148.206 69.0076L146.891 66.5968L140.459 70.1054L140.011 69.2847Z" fill="#415465"/>
<path d="M147.012 87.9417C146.505 85.6364 147.945 83.5367 150.239 83.0318L150.262 83.0268C152.521 82.5295 154.765 83.8066 155.282 86.1575C155.601 87.6069 155.278 88.5873 154.701 89.5519L153.904 89.0813C154.394 88.2673 154.685 87.4136 154.447 86.3295C154.057 84.5606 152.328 83.5532 150.491 83.9576L150.468 83.9626C148.619 84.3695 147.463 86.0237 147.85 87.7812C148.091 88.8768 148.672 89.5028 149.57 90.1067L149.119 90.8282C148.091 90.181 147.331 89.3911 147.012 87.9417Z" fill="#415465"/>
<path d="M148.922 104.558L157.075 105.22L157 106.14L153.378 105.846L152.996 110.552L156.618 110.846L156.544 111.766L148.391 111.104L148.465 110.184L152.134 110.482L152.516 105.776L148.847 105.478L148.922 104.558Z" fill="#415465"/>
<path d="M137.917 140.11L146.724 141.744L146.155 142.6L138.676 141.121L142.925 147.455L142.375 148.282L137.464 140.791L137.917 140.11Z" fill="#415465"/>
<path d="M126.541 153.737L132.001 159.828L131.314 160.444L125.854 154.354L126.541 153.737Z" fill="#415465"/>
<path d="M115.196 162.318L118.958 169.582L116.436 170.888C114.154 172.07 111.765 171.32 110.706 169.276L110.695 169.255C109.637 167.211 110.392 164.807 112.674 163.624L115.196 162.318ZM116.044 170.13L117.746 169.249L114.768 163.5L113.067 164.382C111.23 165.333 110.703 167.186 111.536 168.794L111.546 168.815C112.379 170.423 114.208 171.082 116.044 170.13Z" fill="#415465"/>
<path d="M96.2296 170.002L97.8159 178.027L92.0153 179.173L91.8521 178.348L96.7471 177.38L96.2055 174.64L91.8264 175.506L91.6632 174.681L96.0423 173.815L95.4871 171.006L90.5348 171.985L90.3717 171.16L96.2296 170.002Z" fill="#415465"/>
<path d="M74.1532 171.507C76.6326 171.725 78.1266 173.815 77.9293 176.062L77.9273 176.085C77.73 178.331 75.8694 180.151 73.3899 179.933C70.9105 179.715 69.4165 177.625 69.6138 175.378L69.6158 175.355C69.8131 173.108 71.6737 171.289 74.1532 171.507ZM74.0553 172.355C72.1928 172.191 70.7349 173.565 70.5724 175.416L70.5704 175.439C70.4079 177.29 71.6253 178.922 73.4878 179.085C75.3503 179.249 76.8082 177.875 76.9707 176.024L76.9727 176.001C77.1352 174.15 75.9178 172.518 74.0553 172.355Z" fill="#415465"/>
<path d="M45.3287 162.755L37.631 167.5L36.9142 167.016L38.4316 158.102L39.255 158.658L38.8402 160.986L42.5309 163.476L44.544 162.226L45.3287 162.755ZM41.7601 163.971L38.6699 161.886L37.8835 166.373L41.7601 163.971Z" fill="#415465"/>
<path d="M27.5364 147.732L21.9068 152.421L23.6644 154.531L23.009 155.077L18.8955 150.139L19.551 149.593L21.3085 151.703L26.9381 147.013L27.5364 147.732Z" fill="#415465"/>
<path d="M17.0506 130.786C17.9954 132.949 16.9896 135.288 14.8372 136.228L14.8158 136.238C12.6955 137.164 10.2471 136.346 9.28356 134.14C8.68957 132.78 8.81599 131.756 9.19536 130.698L10.069 131.005C9.74529 131.898 9.62564 132.792 10.07 133.809C10.7949 135.469 12.6868 136.122 14.4108 135.369L14.4322 135.36C16.167 134.602 16.9798 132.755 16.2595 131.106C15.8105 130.078 15.1196 129.576 14.1209 129.158L14.4239 128.363C15.5577 128.799 16.4566 129.426 17.0506 130.786Z" fill="#415465"/>
<path d="M11.9545 114.855L3.82799 115.787L3.72282 114.87L7.33333 114.456L6.79549 109.766L3.18498 110.18L3.07981 109.263L11.2064 108.331L11.3115 109.248L7.65458 109.667L8.19242 114.358L11.8494 113.938L11.9545 114.855Z" fill="#415465"/>
<path d="M15.8562 77.8443L6.89919 77.9495L7.29183 76.9991L14.9153 77.0004L9.51831 71.6098L9.89757 70.6918L16.1686 77.0883L15.8562 77.8443Z" fill="#415465"/>
<path d="M24.3733 62.2698L17.8356 57.3538L18.3904 56.6159L24.9281 61.532L24.3733 62.2698Z" fill="#415465"/>
<path d="M33.8389 51.6516L28.7397 45.2557L30.96 43.4856C32.9701 41.883 35.4589 42.1554 36.894 43.9554L36.9085 43.9737C38.3436 45.7737 38.0693 48.2789 36.0591 49.8815L33.8389 51.6516ZM31.4917 44.1526L29.9933 45.3472L34.0289 50.4091L35.5274 49.2145C37.1446 47.9251 37.303 46.0055 36.1739 44.5893L36.1593 44.571C35.0302 43.1548 33.109 42.8632 31.4917 44.1526Z" fill="#415465"/>
<path d="M50.9551 40.4356L47.8428 32.871L53.3109 30.6212L53.631 31.3993L49.0166 33.2978L50.0793 35.8806L54.2074 34.1821L54.5275 34.9602L50.3994 36.6587L51.4887 39.3063L56.1571 37.3855L56.4773 38.1636L50.9551 40.4356Z" fill="#415465"/>
<path d="M72.3203 34.6779C69.8457 34.9452 67.9748 33.1845 67.7326 30.9422L67.7301 30.919C67.4879 28.6767 68.9604 26.5314 71.435 26.2641C73.9096 25.9968 75.7805 27.7576 76.0227 29.9998L76.0252 30.023C76.2674 32.2653 74.7949 34.4106 72.3203 34.6779ZM72.2519 33.8273C74.1108 33.6265 75.2746 31.9964 75.0751 30.1492L75.0726 30.1259C74.873 28.2787 73.3622 26.9139 71.5034 27.1147C69.6445 27.3155 68.4807 28.9456 68.6802 30.7928L68.6827 30.8161C68.8822 32.6633 70.393 34.0281 72.2519 33.8273Z" fill="#415465"/>
</svg>
